PathFileType	4	(X/Y/Z)	Run_300 02
DataRate	CameraRate	NumFrames	NumMarkers	Units	OrigDataRate	OrigDataStartFrame	OrigNumFrames
100	100	5	42	mm	100	64	128
Frame#	Time	RASI			LPSI			RPSI			RTH1			RTH2			RTH3			LTH1			LTH2			LTH3			RTB1			RTB2			RTB3			LTB1			LTB2			LTB3			RCAL			RTOE			RMT5			LCAL			LTOE			LMT5			LACR			RACR			CLAV			C7			RUA1			RUA2			RUA3			RLEL			RMEL			LUA1			LUA2			LUA3			LLEL			LMEL			RFAsuperior			RFAradius			RFAulna			LFAsuperior			LFAradius			LFAulna			LASI		
		X1	Y1	Z1	X2	Y2	Z2	X3	Y3	Z3	X4	Y4	Z4	X5	Y5	Z5	X6	Y6	Z6	X7	Y7	Z7	X8	Y8	Z8	X9	Y9	Z9	X10	Y10	Z10	X11	Y11	Z11	X12	Y12	Z12	X13	Y13	Z13	X14	Y14	Z14	X15	Y15	Z15	X16	Y16	Z16	X17	Y17	Z17	X18	Y18	Z18	X19	Y19	Z19	X20	Y20	Z20	X21	Y21	Z21	X22	Y22	Z22	X23	Y23	Z23	X24	Y24	Z24	X25	Y25	Z25	X26	Y26	Z26	X27	Y27	Z27	X28	Y28	Z28	X29	Y29	Z29	X30	Y30	Z30	X31	Y31	Z31	X32	Y32	Z32	X33	Y33	Z33	X34	Y34	Z34	X35	Y35	Z35	X36	Y36	Z36	X37	Y37	Z37	X38	Y38	Z38	X39	Y39	Z39	X40	Y40	Z40	X41	Y41	Z41	X42	Y42	Z42	

64	  0.640000	969.352748	1008.000761	-224.322007	821.938755	1062.593340	-421.675383	812.703802	1061.741739	-309.003481	898.993677	892.616927	-177.780202	880.788644	739.813434	-213.169289	960.579293	598.692643	-227.676343	941.819771	868.953914	-526.076010	908.809089	710.702202	-493.536643	994.907224	593.830065	-497.875273	990.939262	352.360455	-321.573717	906.259833	330.343010	-244.993622	882.685602	192.472156	-335.738910	959.039787	407.027977	-440.987191	830.410433	456.692750	-494.879861	744.500069	369.168404	-442.898481	713.967188	103.367094	-331.614065	953.705857	 71.424443	-371.389578	909.831349	 50.064875	-272.636586	580.338871	450.701316	-415.612384	629.932877	218.347682	-428.409166	581.182521	261.117934	-520.014920	960.239004	1495.943709	-492.886404	979.734799	1459.904810	-168.768812	1036.764827	1438.372070	-302.170011	910.118356	1509.619850	-333.707107	873.275423	1361.232442	-106.335642	913.458535	1300.998247	-76.129663	845.444074	1227.961890	-33.544159	813.800927	1171.566690	 -5.027236	806.722963	1144.278629	-90.654150	854.794703	1408.306735	-547.852600	877.255460	1332.291894	-581.016993	797.917034	1279.341119	-607.353117	774.603216	1217.849697	-633.709966	753.015572	1194.960609	-549.127202	902.151201	1103.686487	-13.064927	1041.753955	1049.888097	-116.587722	1015.764905	1004.447852	-71.621670	824.962681	1145.082521	-630.639425	976.341163	1078.627360	-530.256541	953.058235	1029.704095	-578.542622	977.445424	999.512121	-479.300655	
65	  0.650000	969.275942	1008.104049	-225.767682	820.581703	1064.267140	-421.193636	812.297911	1063.341076	-308.487043	897.267317	892.731770	-178.759512	872.359690	740.349562	-212.845096	946.183604	596.417117	-228.513582	941.306906	870.491797	-528.014983	916.949851	713.005904	-496.590321	1008.959303	599.904832	-499.025375	967.499981	349.405559	-322.172359	882.860266	329.231048	-245.718399	855.505337	191.848018	-336.113552	981.133845	411.996909	-440.640395	850.857853	455.122288	-496.101113	768.823942	364.530407	-443.652961	684.535172	104.843499	-331.786805	923.799436	 71.201362	-371.249755	879.748442	 50.283847	-272.906744	599.558194	437.880469	-417.315273	663.220825	208.876390	-428.486191	611.867087	247.814006	-520.195394	958.064926	1496.349690	-492.896216	982.772728	1459.916132	-169.090372	1037.111429	1438.744718	-302.985523	910.053592	1510.378497	-332.539791	879.591151	1358.643699	-104.695588	922.156275	1299.267556	-77.026421	857.264591	1224.051398	-32.711640	828.408818	1166.449485	 -3.368952	819.329323	1139.297982	-88.891960	850.468537	1410.189654	-546.238642	871.284037	1333.950160	-579.846296	790.176899	1282.640881	-604.264432	765.296319	1221.586755	-631.084529	745.320618	1198.725009	-545.689868	918.513238	1101.096862	-14.662491	1056.754313	1052.939530	-123.073508	1033.735002	1006.517978	-77.171395	813.727144	1146.835061	-629.339497	966.889956	1076.405167	-533.782932	940.005384	1028.098433	-581.058878	975.759665	1001.713612	-479.725010	
66	  0.660000	969.546888	1009.375585	-227.150550	819.955710	1067.370184	-420.870822	812.188064	1065.957992	-308.139222	895.337534	893.680133	-179.825497	863.408838	742.193070	-212.731153	930.452965	595.390406	-229.288631	942.040440	874.044712	-529.846562	924.778039	717.287382	-499.565704	1022.342499	608.070466	-499.963944	942.796229	347.622412	-322.221185	858.176807	328.867980	-246.434757	827.779084	191.999673	-336.328010	1002.553253	418.580896	-440.116201	870.286463	454.233127	-496.638163	793.462188	359.568574	-444.337000	655.267639	107.106582	-331.731764	893.820003	 70.872762	-371.118014	849.529824	 50.403506	-272.987113	619.121220	422.880346	-419.003072	698.100817	198.654984	-427.331933	643.828306	232.770617	-519.448471	955.584311	1498.512219	-493.013637	986.038507	1462.102314	-169.726389	1037.636818	1440.895807	-304.092168	910.234161	1512.734300	-331.655715	886.156835	1359.265072	-101.802274	930.641446	1299.935321	-78.501822	868.253901	1223.050736	-32.732924	841.616337	1164.431449	 -3.017132	831.145103	1137.746256	-88.553629	845.648089	1414.102837	-544.230201	864.487707	1338.100621	-578.985145	781.816745	1288.269743	-601.541708	755.149145	1227.658780	-628.540875	736.514508	1205.177545	-542.316850	933.543726	1102.402200	-17.420087	1070.908973	1061.916069	-130.245891	1051.497158	1013.979049	-84.055945	801.996074	1151.479179	-627.886358	958.049384	1080.749400	-537.470122	927.952936	1031.895306	-582.040029	974.814125	1005.336340	-480.328104	
67	  0.670000	970.376378	1011.864727	-228.182493	820.303490	1071.538812	-420.557551	812.644623	1069.491992	-307.633537	893.198440	895.585349	-180.816170	854.365748	745.529313	-212.845104	913.792911	595.811334	-230.184194	943.614747	879.618972	-531.520703	932.152153	723.157410	-502.015464	1034.616927	617.844497	-500.578910	917.385236	347.149242	-322.195086	832.620456	329.612730	-247.162540	799.876196	193.186031	-336.502806	1022.977654	426.318288	-439.651724	888.554007	453.747495	-496.486452	818.060798	354.282484	-444.594929	626.330301	110.649415	-331.399919	863.804337	 70.549659	-371.464319	819.160673	 50.492536	-273.057977	639.080593	405.853745	-420.287097	734.551415	188.074653	-425.263978	677.539104	216.653217	-518.011838	952.852634	1502.319570	-493.202225	989.310011	1466.238597	-170.652801	1038.299413	1444.635386	-305.599858	910.453022	1516.320901	-331.255201	892.819683	1362.556096	-99.242085	938.354820	1302.909100	-80.070291	878.277015	1224.559110	-33.446391	853.485450	1164.976477	 -3.757267	842.242685	1139.047665	-89.495871	840.615909	1419.883759	-541.955076	857.307987	1344.361119	-578.220559	773.326086	1295.939644	-599.179130	744.831509	1235.795846	-625.696742	727.418402	1213.788154	-538.962464	947.588977	1107.658284	-21.149699	1083.842333	1075.685985	-137.733823	1068.555591	1025.968713	-91.859788	790.841742	1159.265751	-626.035498	949.926199	1090.255382	-540.783596	917.280228	1040.006863	-581.377341	974.850655	1010.012069	-480.966209	
68	  0.680000	971.981075	1015.451862	-228.807847	821.476639	1076.526340	-420.041440	813.898343	1073.894120	-306.737504	891.309966	898.565292	-181.645688	845.672673	750.449780	-212.946456	896.859030	597.986893	-231.268393	945.633019	886.781737	-532.992662	939.067673	730.127654	-503.770157	1045.433487	628.602074	-500.745474	891.789999	348.406714	-322.223908	806.800739	332.080843	-247.780920	772.521083	195.798834	-336.671764	1042.181380	434.663929	-439.341086	905.814164	453.221468	-495.790550	842.459557	348.648257	-444.183277	598.110971	116.020497	-330.842993	833.884184	 70.265050	-372.514328	788.766170	 50.653996	-273.362528	659.670356	387.037760	-420.756841	772.511739	177.600595	-422.960676	713.039261	200.157345	-516.097017	950.021592	1507.550028	-493.408740	992.421140	1471.943449	-171.811819	1039.033970	1449.749645	-307.537829	910.657436	1520.942117	-331.172604	898.942498	1367.623399	-98.104135	945.155126	1307.813511	-81.570750	887.521654	1228.006493	-34.648959	864.299476	1167.500036	 -5.261328	852.604439	1142.454199	-91.378849	835.640060	1427.349377	-539.623741	850.247605	1352.208617	-577.387180	765.185289	1305.156061	-596.968156	734.897392	1245.596690	-622.414704	718.884446	1223.900374	-535.526622	960.726212	1116.039658	-25.542172	1095.305672	1092.713933	-145.397849	1084.507194	1041.381382	-100.105766	780.925111	1169.862031	-623.666615	942.514653	1103.007409	-543.279357	908.256048	1051.135613	-579.954905	975.702851	1015.514111	-481.381643	
